#!OML:ASF F:\VICON\USERDATA\INSTALL\rory3\rory3.ASF
:FULLY-SPECIFIED
:DEGREES
457
root 10.2231 15.336 8.86904 6.12507 37.546 3.17443
lowerback 24.4299 1.32129 -0.903183
upperback 3.92074 1.64803 0.467408
thorax -9.3104 0.863009 0.504481
lowerneck -15.6861 -12.6689 -14.3929
upperneck 20.9776 -18.39 17.1883
head 12.666 -7.6396 5.61898
rclavicle 3.39922e-014 -5.96354e-015
rhumerus -17.0047 23.7139 -90.7805
rradius 63.4738
rwrist 7.34069
rhand -21.9046 6.18732
rfingers 7.12502
rthumb 4.50093 -23.7449
lclavicle 3.39922e-014 -5.96354e-015
lhumerus -30.2994 -26.8441 97.692
lradius 67.0074
lwrist 7.65224
lhand -26.8588 31.098
lfingers 7.12502
lthumb -0.283756 61.0775
rfemur -50.3037 -33.1809 28.9237
rtibia 84.7192
rfoot -24.9161 -4.65509
rtoes 4.06215
lfemur -43.5845 11.1285 -18.4398
ltibia 79.7549
lfoot -20.9182 -17.3735
ltoes -14.1355
458
root 10.2316 15.4686 8.90354 6.16976 37.1214 3.24493
lowerback 24.2001 1.27783 -0.984287
upperback 3.81431 1.56385 0.423813
thorax -9.30802 0.823805 0.532753
lowerneck -15.8155 -12.7779 -14.4328
upperneck 21.1228 -18.5853 17.2925
head 12.8068 -7.70532 5.62127
rclavicle 2.18663e-014 -2.46493e-014
rhumerus -18.3565 23.8448 -91.4707
rradius 64.4267
rwrist 7.13618
rhand -21.7324 6.81844
rfingers 7.12502
rthumb 4.66717 -23.1101
lclavicle 2.18663e-014 -2.46493e-014
lhumerus -30.5438 -26.6867 97.7841
lradius 67.3071
lwrist 8.73504
lhand -26.5116 31.4491
lfingers 7.12502
lthumb 0.0516478 61.4288
rfemur -49.1328 -32.7732 29.0019
rtibia 82.8126
rfoot -24.9668 -5.41258
rtoes 5.0871
lfemur -42.4072 11.0167 -18.4465
ltibia 78.1791
lfoot -20.7602 -16.6937
ltoes -14.6084
459
root 10.2385 15.5981 8.94067 6.01587 36.517 3.15229
lowerback 24.075 1.32066 -1.05716
upperback 3.69934 1.5994 0.445282
thorax -9.37408 0.841802 0.588224
lowerneck -15.9204 -12.8948 -14.5525
upperneck 21.3256 -18.7843 17.3956
head 12.9764 -7.77797 5.63801
rclavicle 3.91606e-014 1.31198e-014
rhumerus -19.7322 24.0691 -92.0806
rradius 65.3916
rwrist 6.79161
rhand -21.5881 7.31821
rfingers 7.12502
rthumb 4.8065 -22.6073
lclavicle 3.91606e-014 1.31198e-014
lhumerus -31.0145 -26.5115 97.9981
lradius 67.7766
lwrist 9.85617
lhand -26.0733 31.407
lfingers 7.12502
lthumb 0.474909 61.3862
rfemur -47.751 -32.1387 29.1205
rtibia 80.8834
rfoot -24.9894 -6.24974
rtoes 5.55803
lfemur -41.125 11.1347 -18.3228
ltibia 76.5872
lfoot -20.4289 -16.0688
ltoes -14.1748
460
root 10.2427 15.7258 8.97933 5.89145 35.9724 3.15035
lowerback 23.984 1.35848 -1.16253
upperback 3.57359 1.61755 0.44107
thorax -9.46989 0.852565 0.638665
lowerneck -15.4831 -13.03 -14.8145
upperneck 21.0587 -19.0333 17.7715
head 12.9135 -7.90548 5.78131
rclavicle -1.19271e-014 -5.1684e-015
rhumerus -21.0294 24.377 -92.5621
rradius 66.3076
rwrist 6.3994
rhand -21.4817 7.50372
rfingers 7.12502
rthumb 4.9092 -22.4194
lclavicle -1.19271e-014 -5.1684e-015
lhumerus -31.7205 -26.4789 98.2525
lradius 68.4919
lwrist 11.2352
lhand -25.5533 31.5305
lfingers 7.12502
lthumb 0.977199 61.508
rfemur -46.3646 -31.587 29.1316
rtibia 78.9391
rfoot -24.9875 -6.82772
rtoes 6.80929
lfemur -39.8626 11.184 -18.2869
ltibia 74.9644
lfoot -20.0841 -15.2747
ltoes -14.306
461
root 10.2478 15.8444 9.02081 5.83585 35.5 3.20454
lowerback 23.7079 1.38775 -1.30797
upperback 3.48169 1.61503 0.413037
thorax -9.42969 0.854635 0.696125
lowerneck -14.4434 -13.1774 -15.2438
upperneck 20.3003 -19.3705 18.5971
head 12.6392 -8.09681 6.11911
rclavicle 4.37326e-014 -4.17448e-014
rhumerus -22.1999 24.6722 -92.9592
rradius 67.1542
rwrist 6.01189
rhand -21.3061 7.75396
rfingers 7.12502
rthumb 5.07882 -22.1652
lclavicle 4.37326e-014 -4.17448e-014
lhumerus -32.2256 -26.6593 98.4411
lradius 69.0724
lwrist 12.8811
lhand -25.13 32.121
lfingers 7.12502
lthumb 1.38598 62.0963
rfemur -45.0305 -31.1829 29.1111
rtibia 76.9927
rfoot -25.0669 -7.25645
rtoes 8.0167
lfemur -38.6365 11.1357 -18.3031
ltibia 73.3236
lfoot -19.8898 -14.339
ltoes -15.7829
462
root 10.2531 15.955 9.05937 5.77943 34.9788 3.253
lowerback 23.4481 1.42678 -1.46085
upperback 3.35819 1.62117 0.364962
thorax -9.43273 0.860741 0.732372
lowerneck -13.7887 -13.3025 -15.4517
upperneck 20.059 -19.6757 19.0697
head 12.5698 -8.25196 6.29188
rclavicle -6.65929e-014 3.61788e-014
rhumerus -23.4112 24.9632 -93.4743
rradius 67.9257
rwrist 5.77757
rhand -21.3334 8.23459
rfingers 7.12502
rthumb 5.05246 -21.6852
lclavicle -6.65929e-014 3.61788e-014
lhumerus -32.5145 -26.8666 98.5904
lradius 69.3854
lwrist 14.6145
lhand -24.4857 32.5631
lfingers 7.12502
lthumb 2.00825 62.5334
rfemur -43.684 -30.7204 29.0661
rtibia 75.0261
rfoot -25.1941 -7.84802
rtoes 7.91362
lfemur -37.4093 11.055 -18.3155
ltibia 71.69
lfoot -19.659 -13.4001
ltoes -17.9826
463
root 10.2574 16.0681 9.09493 5.72874 34.3894 3.33186
lowerback 23.2171 1.46417 -1.66212
upperback 3.2754 1.61448 0.316528
thorax -9.40618 0.862628 0.799857
lowerneck -13.7456 -13.3387 -15.2337
upperneck 20.2016 -19.796 19.0009
head 12.6066 -8.29248 6.21062
rclavicle -7.53394e-014 1.35174e-014
rhumerus -24.6228 25.275 -94.0643
rradius 68.7667
rwrist 5.69065
rhand -21.3078 8.51322
rfingers 7.12502
rthumb 5.07715 -21.406
lclavicle -7.53394e-014 1.35174e-014
lhumerus -32.7229 -26.9233 98.7082
lradius 69.7439
lwrist 16.2325
lhand -23.6238 33.4043
lfingers 7.12502
lthumb 2.84066 63.3652
rfemur -42.3296 -30.1365 28.9421
rtibia 73.0362
rfoot -25.2416 -8.42472
rtoes 7.30253
lfemur -36.2108 10.9411 -18.3341
ltibia 70.1136
lfoot -19.1942 -12.7327
ltoes -18.7572
464
root 10.2625 16.1848 9.13521 5.70163 33.8238 3.46594
lowerback 22.9707 1.47654 -1.90017
upperback 3.22233 1.57064 0.289879
thorax -9.33824 0.848638 0.924374
lowerneck -13.6178 -13.3649 -15.0491
upperneck 20.1557 -19.8822 18.9812
head 12.5556 -8.32889 6.15852
rclavicle 1.49089e-014 -1.15295e-014
rhumerus -25.754 25.6423 -94.5474
rradius 69.5857
rwrist 5.58415
rhand -21.3293 8.87969
rfingers 7.12502
rthumb 5.05644 -21.04
lclavicle 1.49089e-014 -1.15295e-014
lhumerus -33.0101 -26.8936 98.828
lradius 70.2933
lwrist 17.7698
lhand -22.8642 34.1965
lfingers 7.12502
lthumb 3.57428 64.1462
rfemur -40.9231 -29.555 28.7083
rtibia 71.0297
rfoot -25.1639 -8.74962
rtoes 7.64375
lfemur -35.0186 10.7268 -18.3667
ltibia 68.6078
lfoot -18.4664 -12.339
ltoes -17.6315
465
root 10.2657 16.2938 9.17683 5.65103 33.3466 3.52341
lowerback 22.7263 1.4431 -2.0561
upperback 3.16154 1.49123 0.291508
thorax -9.27689 0.815559 1.04338
lowerneck -13.317 -13.4678 -15.0277
upperneck 19.9709 -20.0729 19.0873
head 12.4751 -8.42893 6.16096
rclavicle -1.11319e-014 -1.15295e-014
rhumerus -26.7953 26.0447 -95.0109
rradius 70.3375
rwrist 5.52123
rhand -21.6987 9.05985
rfingers 7.12502
rthumb 4.69974 -20.868
lclavicle -1.11319e-014 -1.15295e-014
lhumerus -33.349 -26.925 98.9928
lradius 70.905
lwrist 19.6516
lhand -22.6194 34.1281
lfingers 7.12502
lthumb 3.81066 64.0738
rfemur -39.5207 -28.9961 28.5363
rtibia 69.0337
rfoot -25.033 -9.0319
rtoes 8.21841
lfemur -33.963 10.4466 -18.3564
ltibia 67.2095
lfoot -17.8256 -11.715
ltoes -17.6044
